<mxfile host="app.diagrams.net" modified="2023-02-09T09:01:55.404Z" agent="5.0 (Macintosh; Intel Mac OS X 10_15_7) AppleWebKit/537.36 (KHTML, like Gecko) Chrome/108.0.0.0 Safari/537.36" etag="3Qakeo80J--EkVXWX7Wb" version="20.8.18" type="github" pages="2">
  <diagram name="第 1 页" id="cYTpn5aUSwXa2kTmMULK">
    <mxGraphModel dx="1978" dy="681" grid="1" gridSize="10" guides="1" tooltips="1" connect="1" arrows="1" fold="1" page="1" pageScale="1" pageWidth="827" pageHeight="1169" math="0" shadow="0">
      <root>
        <mxCell id="0" />
        <mxCell id="1" parent="0" />
        <mxCell id="NY8JZ3C-U5HUo9BYB7Ef-1" value="" style="rounded=1;whiteSpace=wrap;html=1;shadow=0;dashed=1;" vertex="1" parent="1">
          <mxGeometry x="-212" y="235" width="240" height="170" as="geometry" />
        </mxCell>
        <mxCell id="g4z9N9XSjGAZjHoc07tf-1" value="View" style="ellipse;whiteSpace=wrap;html=1;aspect=fixed;fontSize=14;" vertex="1" parent="1">
          <mxGeometry x="-640" y="220" width="40" height="40" as="geometry" />
        </mxCell>
        <mxCell id="g4z9N9XSjGAZjHoc07tf-2" value="Text" style="ellipse;whiteSpace=wrap;html=1;aspect=fixed;fontSize=14;" vertex="1" parent="1">
          <mxGeometry x="-720" y="300" width="40" height="40" as="geometry" />
        </mxCell>
        <mxCell id="g4z9N9XSjGAZjHoc07tf-4" value="" style="endArrow=none;html=1;rounded=0;exitX=1;exitY=0;exitDx=0;exitDy=0;" edge="1" parent="1" source="g4z9N9XSjGAZjHoc07tf-2" target="g4z9N9XSjGAZjHoc07tf-1">
          <mxGeometry width="50" height="50" relative="1" as="geometry">
            <mxPoint x="-680" y="270" as="sourcePoint" />
            <mxPoint x="-630" y="220" as="targetPoint" />
          </mxGeometry>
        </mxCell>
        <mxCell id="g4z9N9XSjGAZjHoc07tf-5" value="Text" style="ellipse;whiteSpace=wrap;html=1;aspect=fixed;fontSize=14;" vertex="1" parent="1">
          <mxGeometry x="-640" y="300" width="40" height="40" as="geometry" />
        </mxCell>
        <mxCell id="g4z9N9XSjGAZjHoc07tf-6" value="Text" style="ellipse;whiteSpace=wrap;html=1;aspect=fixed;fontSize=14;dashed=1;" vertex="1" parent="1">
          <mxGeometry x="-560" y="300" width="40" height="40" as="geometry" />
        </mxCell>
        <mxCell id="g4z9N9XSjGAZjHoc07tf-7" value="" style="endArrow=none;html=1;rounded=0;entryX=0.5;entryY=1;entryDx=0;entryDy=0;" edge="1" parent="1" source="g4z9N9XSjGAZjHoc07tf-5" target="g4z9N9XSjGAZjHoc07tf-1">
          <mxGeometry width="50" height="50" relative="1" as="geometry">
            <mxPoint x="-570" y="270" as="sourcePoint" />
            <mxPoint x="-570" y="380" as="targetPoint" />
          </mxGeometry>
        </mxCell>
        <mxCell id="g4z9N9XSjGAZjHoc07tf-8" value="" style="endArrow=none;html=1;rounded=0;exitX=1;exitY=1;exitDx=0;exitDy=0;entryX=0;entryY=0;entryDx=0;entryDy=0;" edge="1" parent="1" source="g4z9N9XSjGAZjHoc07tf-1" target="g4z9N9XSjGAZjHoc07tf-6">
          <mxGeometry width="50" height="50" relative="1" as="geometry">
            <mxPoint x="-580" y="290" as="sourcePoint" />
            <mxPoint x="-560" y="300" as="targetPoint" />
          </mxGeometry>
        </mxCell>
        <mxCell id="g4z9N9XSjGAZjHoc07tf-18" value="" style="ellipse;whiteSpace=wrap;html=1;aspect=fixed;fillColor=#7EA6E0;" vertex="1" parent="1">
          <mxGeometry x="-67" y="255" width="25" height="25" as="geometry" />
        </mxCell>
        <mxCell id="g4z9N9XSjGAZjHoc07tf-19" value="" style="ellipse;whiteSpace=wrap;html=1;aspect=fixed;fillColor=#7EA6E0;" vertex="1" parent="1">
          <mxGeometry x="-122" y="302.5" width="25" height="25" as="geometry" />
        </mxCell>
        <mxCell id="g4z9N9XSjGAZjHoc07tf-20" value="" style="endArrow=none;html=1;rounded=0;exitX=1;exitY=0;exitDx=0;exitDy=0;" edge="1" parent="1" source="g4z9N9XSjGAZjHoc07tf-19" target="g4z9N9XSjGAZjHoc07tf-18">
          <mxGeometry width="50" height="50" relative="1" as="geometry">
            <mxPoint x="-82" y="290" as="sourcePoint" />
            <mxPoint x="-32" y="240" as="targetPoint" />
          </mxGeometry>
        </mxCell>
        <mxCell id="g4z9N9XSjGAZjHoc07tf-21" value="" style="ellipse;whiteSpace=wrap;html=1;aspect=fixed;fillColor=#99FF99;" vertex="1" parent="1">
          <mxGeometry x="-67" y="302.5" width="25" height="25" as="geometry" />
        </mxCell>
        <mxCell id="g4z9N9XSjGAZjHoc07tf-22" value="" style="ellipse;whiteSpace=wrap;html=1;aspect=fixed;fillColor=#CC99FF;" vertex="1" parent="1">
          <mxGeometry x="-12" y="302.5" width="25" height="25" as="geometry" />
        </mxCell>
        <mxCell id="g4z9N9XSjGAZjHoc07tf-23" value="" style="endArrow=none;html=1;rounded=0;entryX=0.5;entryY=1;entryDx=0;entryDy=0;" edge="1" parent="1" source="g4z9N9XSjGAZjHoc07tf-21" target="g4z9N9XSjGAZjHoc07tf-18">
          <mxGeometry width="50" height="50" relative="1" as="geometry">
            <mxPoint x="28" y="290" as="sourcePoint" />
            <mxPoint x="28" y="400" as="targetPoint" />
          </mxGeometry>
        </mxCell>
        <mxCell id="g4z9N9XSjGAZjHoc07tf-24" value="" style="endArrow=none;html=1;rounded=0;exitX=1;exitY=1;exitDx=0;exitDy=0;entryX=0;entryY=0;entryDx=0;entryDy=0;" edge="1" parent="1" source="g4z9N9XSjGAZjHoc07tf-18" target="g4z9N9XSjGAZjHoc07tf-22">
          <mxGeometry width="50" height="50" relative="1" as="geometry">
            <mxPoint x="18" y="310" as="sourcePoint" />
            <mxPoint x="38" y="320" as="targetPoint" />
          </mxGeometry>
        </mxCell>
        <mxCell id="g4z9N9XSjGAZjHoc07tf-25" value="" style="ellipse;whiteSpace=wrap;html=1;aspect=fixed;fillColor=#7EA6E0;" vertex="1" parent="1">
          <mxGeometry x="-182" y="355" width="25" height="25" as="geometry" />
        </mxCell>
        <mxCell id="g4z9N9XSjGAZjHoc07tf-26" value="" style="ellipse;whiteSpace=wrap;html=1;aspect=fixed;fillColor=#FFB366;" vertex="1" parent="1">
          <mxGeometry x="-122" y="355" width="25" height="25" as="geometry" />
        </mxCell>
        <mxCell id="g4z9N9XSjGAZjHoc07tf-27" value="" style="ellipse;whiteSpace=wrap;html=1;aspect=fixed;fillColor=#7EA6E0;" vertex="1" parent="1">
          <mxGeometry x="-67" y="355" width="25" height="25" as="geometry" />
        </mxCell>
        <mxCell id="g4z9N9XSjGAZjHoc07tf-28" value="" style="ellipse;whiteSpace=wrap;html=1;aspect=fixed;fillColor=#7EA6E0;" vertex="1" parent="1">
          <mxGeometry x="-12" y="355" width="25" height="25" as="geometry" />
        </mxCell>
        <mxCell id="g4z9N9XSjGAZjHoc07tf-29" value="" style="endArrow=none;html=1;rounded=0;exitX=1;exitY=0;exitDx=0;exitDy=0;entryX=0;entryY=1;entryDx=0;entryDy=0;" edge="1" parent="1" source="g4z9N9XSjGAZjHoc07tf-25" target="g4z9N9XSjGAZjHoc07tf-19">
          <mxGeometry width="50" height="50" relative="1" as="geometry">
            <mxPoint x="-192" y="382" as="sourcePoint" />
            <mxPoint x="-140" y="330" as="targetPoint" />
          </mxGeometry>
        </mxCell>
        <mxCell id="g4z9N9XSjGAZjHoc07tf-30" value="" style="endArrow=none;html=1;rounded=0;entryX=0.5;entryY=1;entryDx=0;entryDy=0;exitX=0.5;exitY=0;exitDx=0;exitDy=0;" edge="1" parent="1" source="g4z9N9XSjGAZjHoc07tf-26" target="g4z9N9XSjGAZjHoc07tf-19">
          <mxGeometry width="50" height="50" relative="1" as="geometry">
            <mxPoint x="-12" y="330" as="sourcePoint" />
            <mxPoint x="-12" y="290" as="targetPoint" />
          </mxGeometry>
        </mxCell>
        <mxCell id="g4z9N9XSjGAZjHoc07tf-31" value="" style="endArrow=none;html=1;rounded=0;exitX=1;exitY=1;exitDx=0;exitDy=0;entryX=0;entryY=0;entryDx=0;entryDy=0;" edge="1" parent="1" source="g4z9N9XSjGAZjHoc07tf-19" target="g4z9N9XSjGAZjHoc07tf-27">
          <mxGeometry width="50" height="50" relative="1" as="geometry">
            <mxPoint x="2" y="284" as="sourcePoint" />
            <mxPoint x="54" y="336" as="targetPoint" />
          </mxGeometry>
        </mxCell>
        <mxCell id="g4z9N9XSjGAZjHoc07tf-32" value="" style="endArrow=none;html=1;rounded=0;entryX=1;entryY=1;entryDx=0;entryDy=0;exitX=0;exitY=0;exitDx=0;exitDy=0;" edge="1" parent="1" source="g4z9N9XSjGAZjHoc07tf-28" target="g4z9N9XSjGAZjHoc07tf-21">
          <mxGeometry width="50" height="50" relative="1" as="geometry">
            <mxPoint x="118" y="420" as="sourcePoint" />
            <mxPoint x="168" y="370" as="targetPoint" />
          </mxGeometry>
        </mxCell>
        <mxCell id="NY8JZ3C-U5HUo9BYB7Ef-5" value="View" style="ellipse;whiteSpace=wrap;html=1;aspect=fixed;fontSize=14;" vertex="1" parent="1">
          <mxGeometry x="-390" y="220" width="40" height="40" as="geometry" />
        </mxCell>
        <mxCell id="NY8JZ3C-U5HUo9BYB7Ef-6" value="Text" style="ellipse;whiteSpace=wrap;html=1;aspect=fixed;fontSize=14;" vertex="1" parent="1">
          <mxGeometry x="-470" y="300" width="40" height="40" as="geometry" />
        </mxCell>
        <mxCell id="NY8JZ3C-U5HUo9BYB7Ef-7" value="" style="endArrow=none;html=1;rounded=0;exitX=1;exitY=0;exitDx=0;exitDy=0;" edge="1" parent="1" source="NY8JZ3C-U5HUo9BYB7Ef-6" target="NY8JZ3C-U5HUo9BYB7Ef-5">
          <mxGeometry width="50" height="50" relative="1" as="geometry">
            <mxPoint x="-430" y="270" as="sourcePoint" />
            <mxPoint x="-380" y="220" as="targetPoint" />
          </mxGeometry>
        </mxCell>
        <mxCell id="NY8JZ3C-U5HUo9BYB7Ef-8" value="Text" style="ellipse;whiteSpace=wrap;html=1;aspect=fixed;fontSize=14;" vertex="1" parent="1">
          <mxGeometry x="-390" y="300" width="40" height="40" as="geometry" />
        </mxCell>
        <mxCell id="NY8JZ3C-U5HUo9BYB7Ef-9" value="List" style="ellipse;whiteSpace=wrap;html=1;aspect=fixed;fontSize=14;" vertex="1" parent="1">
          <mxGeometry x="-310" y="300" width="40" height="40" as="geometry" />
        </mxCell>
        <mxCell id="NY8JZ3C-U5HUo9BYB7Ef-10" value="" style="endArrow=none;html=1;rounded=0;entryX=0.5;entryY=1;entryDx=0;entryDy=0;" edge="1" parent="1" source="NY8JZ3C-U5HUo9BYB7Ef-8" target="NY8JZ3C-U5HUo9BYB7Ef-5">
          <mxGeometry width="50" height="50" relative="1" as="geometry">
            <mxPoint x="-320" y="270" as="sourcePoint" />
            <mxPoint x="-320" y="380" as="targetPoint" />
          </mxGeometry>
        </mxCell>
        <mxCell id="NY8JZ3C-U5HUo9BYB7Ef-11" value="" style="endArrow=none;html=1;rounded=0;exitX=1;exitY=1;exitDx=0;exitDy=0;entryX=0;entryY=0;entryDx=0;entryDy=0;" edge="1" parent="1" source="NY8JZ3C-U5HUo9BYB7Ef-5" target="NY8JZ3C-U5HUo9BYB7Ef-9">
          <mxGeometry width="50" height="50" relative="1" as="geometry">
            <mxPoint x="-330" y="290" as="sourcePoint" />
            <mxPoint x="-310" y="300" as="targetPoint" />
          </mxGeometry>
        </mxCell>
        <mxCell id="NY8JZ3C-U5HUo9BYB7Ef-12" value="" style="endArrow=classic;html=1;rounded=0;fontSize=14;exitX=0.5;exitY=1;exitDx=0;exitDy=0;entryX=0.5;entryY=1;entryDx=0;entryDy=0;fillColor=#f8cecc;strokeColor=#b85450;dashed=1;dashPattern=1 1;" edge="1" parent="1" source="g4z9N9XSjGAZjHoc07tf-5" target="NY8JZ3C-U5HUo9BYB7Ef-8">
          <mxGeometry width="50" height="50" relative="1" as="geometry">
            <mxPoint x="-580" y="460" as="sourcePoint" />
            <mxPoint x="-530" y="410" as="targetPoint" />
            <Array as="points">
              <mxPoint x="-620" y="420" />
              <mxPoint x="-510" y="420" />
              <mxPoint x="-400" y="420" />
              <mxPoint x="-370" y="420" />
            </Array>
          </mxGeometry>
        </mxCell>
        <mxCell id="NY8JZ3C-U5HUo9BYB7Ef-13" value="" style="endArrow=classic;html=1;rounded=0;fontSize=14;exitX=0.5;exitY=1;exitDx=0;exitDy=0;entryX=0.5;entryY=1;entryDx=0;entryDy=0;fillColor=#ffe6cc;strokeColor=#d79b00;dashed=1;dashPattern=1 1;" edge="1" parent="1" source="g4z9N9XSjGAZjHoc07tf-2" target="NY8JZ3C-U5HUo9BYB7Ef-6">
          <mxGeometry width="50" height="50" relative="1" as="geometry">
            <mxPoint x="-720" y="350" as="sourcePoint" />
            <mxPoint x="-380" y="360" as="targetPoint" />
            <Array as="points">
              <mxPoint x="-700" y="410" />
              <mxPoint x="-590" y="410" />
              <mxPoint x="-480" y="410" />
              <mxPoint x="-450" y="410" />
            </Array>
          </mxGeometry>
        </mxCell>
        <mxCell id="NY8JZ3C-U5HUo9BYB7Ef-14" value="创建为Render Node" style="text;html=1;strokeColor=none;fillColor=none;align=center;verticalAlign=middle;whiteSpace=wrap;rounded=0;fontSize=14;" vertex="1" parent="1">
          <mxGeometry x="-690" y="360" width="60" height="30" as="geometry" />
        </mxCell>
        <mxCell id="NY8JZ3C-U5HUo9BYB7Ef-15" value="包含vl:for = list" style="text;html=1;strokeColor=none;fillColor=none;align=center;verticalAlign=middle;whiteSpace=wrap;rounded=0;fontSize=14;" vertex="1" parent="1">
          <mxGeometry x="-590.5" y="340" width="101" height="30" as="geometry" />
        </mxCell>
        <mxCell id="NY8JZ3C-U5HUo9BYB7Ef-23" value="DSL Tree" style="text;html=1;strokeColor=none;fillColor=none;align=center;verticalAlign=middle;whiteSpace=wrap;rounded=0;fontSize=14;" vertex="1" parent="1">
          <mxGeometry x="-660" y="190" width="80" height="30" as="geometry" />
        </mxCell>
        <mxCell id="NY8JZ3C-U5HUo9BYB7Ef-24" value="Node Tree" style="text;html=1;strokeColor=none;fillColor=none;align=center;verticalAlign=middle;whiteSpace=wrap;rounded=0;fontSize=14;" vertex="1" parent="1">
          <mxGeometry x="-405" y="190" width="70" height="30" as="geometry" />
        </mxCell>
        <mxCell id="NY8JZ3C-U5HUo9BYB7Ef-25" value="展开for节点" style="text;html=1;strokeColor=none;fillColor=none;align=center;verticalAlign=middle;whiteSpace=wrap;rounded=0;fontSize=14;" vertex="1" parent="1">
          <mxGeometry x="-340" y="393" width="101" height="30" as="geometry" />
        </mxCell>
        <mxCell id="NY8JZ3C-U5HUo9BYB7Ef-26" value="Render Tree" style="text;html=1;strokeColor=none;fillColor=none;align=center;verticalAlign=middle;whiteSpace=wrap;rounded=0;fontSize=14;" vertex="1" parent="1">
          <mxGeometry x="-134.5" y="190" width="85" height="30" as="geometry" />
        </mxCell>
        <mxCell id="NY8JZ3C-U5HUo9BYB7Ef-28" value="编译期" style="text;html=1;strokeColor=#6c8ebf;fillColor=#dae8fc;align=center;verticalAlign=middle;whiteSpace=wrap;rounded=0;fontSize=14;" vertex="1" parent="1">
          <mxGeometry x="-715" y="150" width="190" height="30" as="geometry" />
        </mxCell>
        <mxCell id="NY8JZ3C-U5HUo9BYB7Ef-29" value="运行时" style="text;html=1;strokeColor=#6c8ebf;fillColor=#dae8fc;align=center;verticalAlign=middle;whiteSpace=wrap;rounded=0;fontSize=14;" vertex="1" parent="1">
          <mxGeometry x="-460" y="150" width="480" height="30" as="geometry" />
        </mxCell>
        <mxCell id="NY8JZ3C-U5HUo9BYB7Ef-34" value="" style="ellipse;whiteSpace=wrap;html=1;aspect=fixed;fillColor=#7EA6E0;" vertex="1" parent="1">
          <mxGeometry x="-301.25" y="364" width="22.5" height="22.5" as="geometry" />
        </mxCell>
        <mxCell id="NY8JZ3C-U5HUo9BYB7Ef-35" value="" style="ellipse;whiteSpace=wrap;html=1;aspect=fixed;fillColor=#7EA6E0;" vertex="1" parent="1">
          <mxGeometry x="-350" y="364" width="22" height="22" as="geometry" />
        </mxCell>
        <mxCell id="NY8JZ3C-U5HUo9BYB7Ef-36" value="" style="ellipse;whiteSpace=wrap;html=1;aspect=fixed;fillColor=#7EA6E0;" vertex="1" parent="1">
          <mxGeometry x="-256" y="364.25" width="22" height="22" as="geometry" />
        </mxCell>
        <mxCell id="NY8JZ3C-U5HUo9BYB7Ef-37" value="" style="endArrow=none;html=1;rounded=0;fontSize=14;entryX=0;entryY=1;entryDx=0;entryDy=0;exitX=1;exitY=0;exitDx=0;exitDy=0;" edge="1" parent="1" source="NY8JZ3C-U5HUo9BYB7Ef-35" target="NY8JZ3C-U5HUo9BYB7Ef-9">
          <mxGeometry width="50" height="50" relative="1" as="geometry">
            <mxPoint x="-330" y="370" as="sourcePoint" />
            <mxPoint x="-290" y="370" as="targetPoint" />
          </mxGeometry>
        </mxCell>
        <mxCell id="NY8JZ3C-U5HUo9BYB7Ef-38" value="" style="endArrow=none;html=1;rounded=0;fontSize=14;exitX=0.5;exitY=0;exitDx=0;exitDy=0;entryX=0.5;entryY=1;entryDx=0;entryDy=0;" edge="1" parent="1" source="NY8JZ3C-U5HUo9BYB7Ef-34" target="NY8JZ3C-U5HUo9BYB7Ef-9">
          <mxGeometry width="50" height="50" relative="1" as="geometry">
            <mxPoint x="-310" y="410" as="sourcePoint" />
            <mxPoint x="-290" y="380" as="targetPoint" />
          </mxGeometry>
        </mxCell>
        <mxCell id="NY8JZ3C-U5HUo9BYB7Ef-39" value="" style="endArrow=none;html=1;rounded=0;fontSize=14;exitX=0;exitY=0;exitDx=0;exitDy=0;entryX=1;entryY=1;entryDx=0;entryDy=0;" edge="1" parent="1" source="NY8JZ3C-U5HUo9BYB7Ef-36" target="NY8JZ3C-U5HUo9BYB7Ef-9">
          <mxGeometry width="50" height="50" relative="1" as="geometry">
            <mxPoint x="-281" y="411" as="sourcePoint" />
            <mxPoint x="-280" y="380" as="targetPoint" />
          </mxGeometry>
        </mxCell>
        <mxCell id="NY8JZ3C-U5HUo9BYB7Ef-42" value="" style="rounded=1;whiteSpace=wrap;html=1;shadow=0;dashed=1;" vertex="1" parent="1">
          <mxGeometry x="-234" y="695" width="240" height="170" as="geometry" />
        </mxCell>
        <mxCell id="NY8JZ3C-U5HUo9BYB7Ef-43" value="View" style="ellipse;whiteSpace=wrap;html=1;aspect=fixed;fontSize=14;" vertex="1" parent="1">
          <mxGeometry x="-640" y="680" width="40" height="40" as="geometry" />
        </mxCell>
        <mxCell id="NY8JZ3C-U5HUo9BYB7Ef-44" value="Text" style="ellipse;whiteSpace=wrap;html=1;aspect=fixed;fontSize=14;" vertex="1" parent="1">
          <mxGeometry x="-720" y="760" width="40" height="40" as="geometry" />
        </mxCell>
        <mxCell id="NY8JZ3C-U5HUo9BYB7Ef-45" value="" style="endArrow=none;html=1;rounded=0;exitX=1;exitY=0;exitDx=0;exitDy=0;" edge="1" parent="1" source="NY8JZ3C-U5HUo9BYB7Ef-44" target="NY8JZ3C-U5HUo9BYB7Ef-43">
          <mxGeometry width="50" height="50" relative="1" as="geometry">
            <mxPoint x="-680" y="730" as="sourcePoint" />
            <mxPoint x="-630" y="680" as="targetPoint" />
          </mxGeometry>
        </mxCell>
        <mxCell id="NY8JZ3C-U5HUo9BYB7Ef-46" value="Text" style="ellipse;whiteSpace=wrap;html=1;aspect=fixed;fontSize=14;" vertex="1" parent="1">
          <mxGeometry x="-640" y="760" width="40" height="40" as="geometry" />
        </mxCell>
        <mxCell id="NY8JZ3C-U5HUo9BYB7Ef-47" value="Text" style="ellipse;whiteSpace=wrap;html=1;aspect=fixed;fontSize=14;dashed=1;" vertex="1" parent="1">
          <mxGeometry x="-560" y="760" width="40" height="40" as="geometry" />
        </mxCell>
        <mxCell id="NY8JZ3C-U5HUo9BYB7Ef-48" value="" style="endArrow=none;html=1;rounded=0;entryX=0.5;entryY=1;entryDx=0;entryDy=0;" edge="1" parent="1" source="NY8JZ3C-U5HUo9BYB7Ef-46" target="NY8JZ3C-U5HUo9BYB7Ef-43">
          <mxGeometry width="50" height="50" relative="1" as="geometry">
            <mxPoint x="-570" y="730" as="sourcePoint" />
            <mxPoint x="-570" y="840" as="targetPoint" />
          </mxGeometry>
        </mxCell>
        <mxCell id="NY8JZ3C-U5HUo9BYB7Ef-49" value="" style="endArrow=none;html=1;rounded=0;exitX=1;exitY=1;exitDx=0;exitDy=0;entryX=0;entryY=0;entryDx=0;entryDy=0;" edge="1" parent="1" source="NY8JZ3C-U5HUo9BYB7Ef-43" target="NY8JZ3C-U5HUo9BYB7Ef-47">
          <mxGeometry width="50" height="50" relative="1" as="geometry">
            <mxPoint x="-580" y="750" as="sourcePoint" />
            <mxPoint x="-560" y="760" as="targetPoint" />
          </mxGeometry>
        </mxCell>
        <mxCell id="NY8JZ3C-U5HUo9BYB7Ef-50" value="" style="ellipse;whiteSpace=wrap;html=1;aspect=fixed;fillColor=#7EA6E0;" vertex="1" parent="1">
          <mxGeometry x="-89" y="715" width="25" height="25" as="geometry" />
        </mxCell>
        <mxCell id="NY8JZ3C-U5HUo9BYB7Ef-51" value="" style="ellipse;whiteSpace=wrap;html=1;aspect=fixed;fillColor=#7EA6E0;" vertex="1" parent="1">
          <mxGeometry x="-144" y="762.5" width="25" height="25" as="geometry" />
        </mxCell>
        <mxCell id="NY8JZ3C-U5HUo9BYB7Ef-52" value="" style="endArrow=none;html=1;rounded=0;exitX=1;exitY=0;exitDx=0;exitDy=0;" edge="1" parent="1" source="NY8JZ3C-U5HUo9BYB7Ef-51" target="NY8JZ3C-U5HUo9BYB7Ef-50">
          <mxGeometry width="50" height="50" relative="1" as="geometry">
            <mxPoint x="-104" y="750" as="sourcePoint" />
            <mxPoint x="-54" y="700" as="targetPoint" />
          </mxGeometry>
        </mxCell>
        <mxCell id="NY8JZ3C-U5HUo9BYB7Ef-53" value="" style="ellipse;whiteSpace=wrap;html=1;aspect=fixed;fillColor=#99FF99;" vertex="1" parent="1">
          <mxGeometry x="-89" y="762.5" width="25" height="25" as="geometry" />
        </mxCell>
        <mxCell id="NY8JZ3C-U5HUo9BYB7Ef-54" value="" style="ellipse;whiteSpace=wrap;html=1;aspect=fixed;fillColor=#CC99FF;" vertex="1" parent="1">
          <mxGeometry x="-34" y="762.5" width="25" height="25" as="geometry" />
        </mxCell>
        <mxCell id="NY8JZ3C-U5HUo9BYB7Ef-55" value="" style="endArrow=none;html=1;rounded=0;entryX=0.5;entryY=1;entryDx=0;entryDy=0;" edge="1" parent="1" source="NY8JZ3C-U5HUo9BYB7Ef-53" target="NY8JZ3C-U5HUo9BYB7Ef-50">
          <mxGeometry width="50" height="50" relative="1" as="geometry">
            <mxPoint x="6" y="750" as="sourcePoint" />
            <mxPoint x="6" y="860" as="targetPoint" />
          </mxGeometry>
        </mxCell>
        <mxCell id="NY8JZ3C-U5HUo9BYB7Ef-56" value="" style="endArrow=none;html=1;rounded=0;exitX=1;exitY=1;exitDx=0;exitDy=0;entryX=0;entryY=0;entryDx=0;entryDy=0;" edge="1" parent="1" source="NY8JZ3C-U5HUo9BYB7Ef-50" target="NY8JZ3C-U5HUo9BYB7Ef-54">
          <mxGeometry width="50" height="50" relative="1" as="geometry">
            <mxPoint x="-4" y="770" as="sourcePoint" />
            <mxPoint x="16" y="780" as="targetPoint" />
          </mxGeometry>
        </mxCell>
        <mxCell id="NY8JZ3C-U5HUo9BYB7Ef-57" value="" style="ellipse;whiteSpace=wrap;html=1;aspect=fixed;fillColor=#7EA6E0;" vertex="1" parent="1">
          <mxGeometry x="-204" y="815" width="25" height="25" as="geometry" />
        </mxCell>
        <mxCell id="NY8JZ3C-U5HUo9BYB7Ef-58" value="" style="ellipse;whiteSpace=wrap;html=1;aspect=fixed;fillColor=#FFB366;" vertex="1" parent="1">
          <mxGeometry x="-144" y="815" width="25" height="25" as="geometry" />
        </mxCell>
        <mxCell id="NY8JZ3C-U5HUo9BYB7Ef-59" value="" style="ellipse;whiteSpace=wrap;html=1;aspect=fixed;fillColor=#7EA6E0;" vertex="1" parent="1">
          <mxGeometry x="-89" y="815" width="25" height="25" as="geometry" />
        </mxCell>
        <mxCell id="NY8JZ3C-U5HUo9BYB7Ef-60" value="" style="ellipse;whiteSpace=wrap;html=1;aspect=fixed;fillColor=#7EA6E0;" vertex="1" parent="1">
          <mxGeometry x="-34" y="815" width="25" height="25" as="geometry" />
        </mxCell>
        <mxCell id="NY8JZ3C-U5HUo9BYB7Ef-61" value="" style="endArrow=none;html=1;rounded=0;exitX=1;exitY=0;exitDx=0;exitDy=0;entryX=0;entryY=1;entryDx=0;entryDy=0;" edge="1" parent="1" source="NY8JZ3C-U5HUo9BYB7Ef-57" target="NY8JZ3C-U5HUo9BYB7Ef-51">
          <mxGeometry width="50" height="50" relative="1" as="geometry">
            <mxPoint x="-214" y="842" as="sourcePoint" />
            <mxPoint x="-162" y="790" as="targetPoint" />
          </mxGeometry>
        </mxCell>
        <mxCell id="NY8JZ3C-U5HUo9BYB7Ef-62" value="" style="endArrow=none;html=1;rounded=0;entryX=0.5;entryY=1;entryDx=0;entryDy=0;exitX=0.5;exitY=0;exitDx=0;exitDy=0;" edge="1" parent="1" source="NY8JZ3C-U5HUo9BYB7Ef-58" target="NY8JZ3C-U5HUo9BYB7Ef-51">
          <mxGeometry width="50" height="50" relative="1" as="geometry">
            <mxPoint x="-34" y="790" as="sourcePoint" />
            <mxPoint x="-34" y="750" as="targetPoint" />
          </mxGeometry>
        </mxCell>
        <mxCell id="NY8JZ3C-U5HUo9BYB7Ef-63" value="" style="endArrow=none;html=1;rounded=0;exitX=1;exitY=1;exitDx=0;exitDy=0;entryX=0;entryY=0;entryDx=0;entryDy=0;" edge="1" parent="1" source="NY8JZ3C-U5HUo9BYB7Ef-51" target="NY8JZ3C-U5HUo9BYB7Ef-59">
          <mxGeometry width="50" height="50" relative="1" as="geometry">
            <mxPoint x="-20" y="744" as="sourcePoint" />
            <mxPoint x="32" y="796" as="targetPoint" />
          </mxGeometry>
        </mxCell>
        <mxCell id="NY8JZ3C-U5HUo9BYB7Ef-64" value="" style="endArrow=none;html=1;rounded=0;entryX=1;entryY=1;entryDx=0;entryDy=0;exitX=0;exitY=0;exitDx=0;exitDy=0;" edge="1" parent="1" source="NY8JZ3C-U5HUo9BYB7Ef-60" target="NY8JZ3C-U5HUo9BYB7Ef-53">
          <mxGeometry width="50" height="50" relative="1" as="geometry">
            <mxPoint x="96" y="880" as="sourcePoint" />
            <mxPoint x="146" y="830" as="targetPoint" />
          </mxGeometry>
        </mxCell>
        <mxCell id="NY8JZ3C-U5HUo9BYB7Ef-65" value="View" style="ellipse;whiteSpace=wrap;html=1;aspect=fixed;fontSize=14;" vertex="1" parent="1">
          <mxGeometry x="-390" y="680" width="40" height="40" as="geometry" />
        </mxCell>
        <mxCell id="NY8JZ3C-U5HUo9BYB7Ef-66" value="Text" style="ellipse;whiteSpace=wrap;html=1;aspect=fixed;fontSize=14;" vertex="1" parent="1">
          <mxGeometry x="-470" y="760" width="40" height="40" as="geometry" />
        </mxCell>
        <mxCell id="NY8JZ3C-U5HUo9BYB7Ef-67" value="" style="endArrow=none;html=1;rounded=0;exitX=1;exitY=0;exitDx=0;exitDy=0;" edge="1" parent="1" source="NY8JZ3C-U5HUo9BYB7Ef-66" target="NY8JZ3C-U5HUo9BYB7Ef-65">
          <mxGeometry width="50" height="50" relative="1" as="geometry">
            <mxPoint x="-430" y="730" as="sourcePoint" />
            <mxPoint x="-380" y="680" as="targetPoint" />
          </mxGeometry>
        </mxCell>
        <mxCell id="NY8JZ3C-U5HUo9BYB7Ef-68" value="Text" style="ellipse;whiteSpace=wrap;html=1;aspect=fixed;fontSize=14;" vertex="1" parent="1">
          <mxGeometry x="-390" y="760" width="40" height="40" as="geometry" />
        </mxCell>
        <mxCell id="NY8JZ3C-U5HUo9BYB7Ef-69" value="List" style="ellipse;whiteSpace=wrap;html=1;aspect=fixed;fontSize=14;" vertex="1" parent="1">
          <mxGeometry x="-310" y="760" width="40" height="40" as="geometry" />
        </mxCell>
        <mxCell id="NY8JZ3C-U5HUo9BYB7Ef-70" value="" style="endArrow=none;html=1;rounded=0;entryX=0.5;entryY=1;entryDx=0;entryDy=0;" edge="1" parent="1" source="NY8JZ3C-U5HUo9BYB7Ef-68" target="NY8JZ3C-U5HUo9BYB7Ef-65">
          <mxGeometry width="50" height="50" relative="1" as="geometry">
            <mxPoint x="-320" y="730" as="sourcePoint" />
            <mxPoint x="-320" y="840" as="targetPoint" />
          </mxGeometry>
        </mxCell>
        <mxCell id="NY8JZ3C-U5HUo9BYB7Ef-71" value="" style="endArrow=none;html=1;rounded=0;exitX=1;exitY=1;exitDx=0;exitDy=0;entryX=0;entryY=0;entryDx=0;entryDy=0;" edge="1" parent="1" source="NY8JZ3C-U5HUo9BYB7Ef-65" target="NY8JZ3C-U5HUo9BYB7Ef-69">
          <mxGeometry width="50" height="50" relative="1" as="geometry">
            <mxPoint x="-330" y="750" as="sourcePoint" />
            <mxPoint x="-310" y="760" as="targetPoint" />
          </mxGeometry>
        </mxCell>
        <mxCell id="NY8JZ3C-U5HUo9BYB7Ef-72" value="" style="endArrow=classic;html=1;rounded=0;fontSize=14;exitX=0.5;exitY=1;exitDx=0;exitDy=0;entryX=0.5;entryY=1;entryDx=0;entryDy=0;" edge="1" parent="1" source="NY8JZ3C-U5HUo9BYB7Ef-46" target="NY8JZ3C-U5HUo9BYB7Ef-68">
          <mxGeometry width="50" height="50" relative="1" as="geometry">
            <mxPoint x="-580" y="920" as="sourcePoint" />
            <mxPoint x="-530" y="870" as="targetPoint" />
            <Array as="points">
              <mxPoint x="-620" y="900" />
              <mxPoint x="-510" y="900" />
              <mxPoint x="-400" y="900" />
              <mxPoint x="-370" y="900" />
            </Array>
          </mxGeometry>
        </mxCell>
        <mxCell id="NY8JZ3C-U5HUo9BYB7Ef-73" value="" style="endArrow=classic;html=1;rounded=0;fontSize=14;exitX=0.5;exitY=1;exitDx=0;exitDy=0;entryX=0.5;entryY=1;entryDx=0;entryDy=0;" edge="1" parent="1" source="NY8JZ3C-U5HUo9BYB7Ef-44" target="NY8JZ3C-U5HUo9BYB7Ef-66">
          <mxGeometry width="50" height="50" relative="1" as="geometry">
            <mxPoint x="-720" y="810" as="sourcePoint" />
            <mxPoint x="-380" y="820" as="targetPoint" />
            <Array as="points">
              <mxPoint x="-700" y="870" />
              <mxPoint x="-590" y="870" />
              <mxPoint x="-480" y="870" />
              <mxPoint x="-450" y="870" />
            </Array>
          </mxGeometry>
        </mxCell>
        <mxCell id="NY8JZ3C-U5HUo9BYB7Ef-74" value="创建为Render Node" style="text;html=1;strokeColor=none;fillColor=none;align=center;verticalAlign=middle;whiteSpace=wrap;rounded=0;fontSize=14;" vertex="1" parent="1">
          <mxGeometry x="-690" y="820" width="60" height="30" as="geometry" />
        </mxCell>
        <mxCell id="NY8JZ3C-U5HUo9BYB7Ef-75" value="包含vl:for = list" style="text;html=1;strokeColor=none;fillColor=none;align=center;verticalAlign=middle;whiteSpace=wrap;rounded=0;fontSize=14;" vertex="1" parent="1">
          <mxGeometry x="-590.5" y="800" width="101" height="30" as="geometry" />
        </mxCell>
        <mxCell id="NY8JZ3C-U5HUo9BYB7Ef-76" value="DSL Tree" style="text;html=1;strokeColor=none;fillColor=none;align=center;verticalAlign=middle;whiteSpace=wrap;rounded=0;fontSize=14;" vertex="1" parent="1">
          <mxGeometry x="-660" y="650" width="80" height="30" as="geometry" />
        </mxCell>
        <mxCell id="NY8JZ3C-U5HUo9BYB7Ef-77" value="Node Tree" style="text;html=1;strokeColor=none;fillColor=none;align=center;verticalAlign=middle;whiteSpace=wrap;rounded=0;fontSize=14;" vertex="1" parent="1">
          <mxGeometry x="-405" y="650" width="70" height="30" as="geometry" />
        </mxCell>
        <mxCell id="NY8JZ3C-U5HUo9BYB7Ef-78" value="解析for节点" style="text;html=1;strokeColor=none;fillColor=none;align=center;verticalAlign=middle;whiteSpace=wrap;rounded=0;fontSize=14;" vertex="1" parent="1">
          <mxGeometry x="-340.5" y="800" width="101" height="30" as="geometry" />
        </mxCell>
        <mxCell id="NY8JZ3C-U5HUo9BYB7Ef-79" value="Render Tree" style="text;html=1;strokeColor=none;fillColor=none;align=center;verticalAlign=middle;whiteSpace=wrap;rounded=0;fontSize=14;" vertex="1" parent="1">
          <mxGeometry x="-156.5" y="650" width="85" height="30" as="geometry" />
        </mxCell>
        <mxCell id="NY8JZ3C-U5HUo9BYB7Ef-80" value="" style="endArrow=none;dashed=1;html=1;rounded=0;fontSize=14;" edge="1" parent="1">
          <mxGeometry width="50" height="50" relative="1" as="geometry">
            <mxPoint x="-489.5" y="930" as="sourcePoint" />
            <mxPoint x="-489.5" y="580" as="targetPoint" />
          </mxGeometry>
        </mxCell>
        <mxCell id="NY8JZ3C-U5HUo9BYB7Ef-81" value="编译期" style="text;html=1;strokeColor=#6c8ebf;fillColor=#dae8fc;align=center;verticalAlign=middle;whiteSpace=wrap;rounded=0;fontSize=14;" vertex="1" parent="1">
          <mxGeometry x="-650" y="610" width="60" height="30" as="geometry" />
        </mxCell>
        <mxCell id="NY8JZ3C-U5HUo9BYB7Ef-82" value="运行时" style="text;html=1;strokeColor=#6c8ebf;fillColor=#dae8fc;align=center;verticalAlign=middle;whiteSpace=wrap;rounded=0;fontSize=14;" vertex="1" parent="1">
          <mxGeometry x="-400" y="610" width="60" height="30" as="geometry" />
        </mxCell>
        <mxCell id="NY8JZ3C-U5HUo9BYB7Ef-83" value="" style="shape=flexArrow;endArrow=classic;html=1;rounded=0;fontSize=14;endWidth=11.11111111111111;endSize=7.344444444444445;fillColor=#e1d5e7;strokeColor=#9673a6;" edge="1" parent="1">
          <mxGeometry width="50" height="50" relative="1" as="geometry">
            <mxPoint x="-560" y="700" as="sourcePoint" />
            <mxPoint x="-510" y="700" as="targetPoint" />
          </mxGeometry>
        </mxCell>
        <mxCell id="NY8JZ3C-U5HUo9BYB7Ef-84" value="" style="shape=flexArrow;endArrow=classic;html=1;rounded=0;fontSize=14;endWidth=11.11111111111111;endSize=7.344444444444445;fillColor=#e1d5e7;strokeColor=#9673a6;" edge="1" parent="1">
          <mxGeometry width="50" height="50" relative="1" as="geometry">
            <mxPoint x="-315" y="699.44" as="sourcePoint" />
            <mxPoint x="-265" y="699.44" as="targetPoint" />
          </mxGeometry>
        </mxCell>
        <mxCell id="NY8JZ3C-U5HUo9BYB7Ef-85" value="" style="shape=flexArrow;endArrow=classic;html=1;rounded=0;fontSize=14;endWidth=11.11111111111111;endSize=7.344444444444445;fillColor=#e1d5e7;strokeColor=#9673a6;" edge="1" parent="1">
          <mxGeometry width="50" height="50" relative="1" as="geometry">
            <mxPoint x="-455" y="699.44" as="sourcePoint" />
            <mxPoint x="-405" y="699.44" as="targetPoint" />
          </mxGeometry>
        </mxCell>
        <mxCell id="NY8JZ3C-U5HUo9BYB7Ef-86" value="" style="ellipse;whiteSpace=wrap;html=1;aspect=fixed;fillColor=#7EA6E0;" vertex="1" parent="1">
          <mxGeometry x="-301.25" y="861" width="22.5" height="22.5" as="geometry" />
        </mxCell>
        <mxCell id="NY8JZ3C-U5HUo9BYB7Ef-87" value="" style="ellipse;whiteSpace=wrap;html=1;aspect=fixed;fillColor=#7EA6E0;" vertex="1" parent="1">
          <mxGeometry x="-340.5" y="861" width="22" height="22" as="geometry" />
        </mxCell>
        <mxCell id="NY8JZ3C-U5HUo9BYB7Ef-88" value="" style="ellipse;whiteSpace=wrap;html=1;aspect=fixed;fillColor=#7EA6E0;" vertex="1" parent="1">
          <mxGeometry x="-264.5" y="861" width="22" height="22" as="geometry" />
        </mxCell>
        <mxCell id="NY8JZ3C-U5HUo9BYB7Ef-89" value="" style="endArrow=none;html=1;rounded=0;fontSize=14;exitX=1;exitY=0;exitDx=0;exitDy=0;" edge="1" parent="1" source="NY8JZ3C-U5HUo9BYB7Ef-87">
          <mxGeometry width="50" height="50" relative="1" as="geometry">
            <mxPoint x="-320" y="860" as="sourcePoint" />
            <mxPoint x="-290" y="830" as="targetPoint" />
          </mxGeometry>
        </mxCell>
        <mxCell id="NY8JZ3C-U5HUo9BYB7Ef-90" value="" style="endArrow=none;html=1;rounded=0;fontSize=14;exitX=0.5;exitY=0;exitDx=0;exitDy=0;entryX=0.5;entryY=1;entryDx=0;entryDy=0;" edge="1" parent="1" source="NY8JZ3C-U5HUo9BYB7Ef-86" target="NY8JZ3C-U5HUo9BYB7Ef-78">
          <mxGeometry width="50" height="50" relative="1" as="geometry">
            <mxPoint x="-310" y="870" as="sourcePoint" />
            <mxPoint x="-290" y="840" as="targetPoint" />
          </mxGeometry>
        </mxCell>
        <mxCell id="NY8JZ3C-U5HUo9BYB7Ef-91" value="" style="endArrow=none;html=1;rounded=0;fontSize=14;exitX=0;exitY=0;exitDx=0;exitDy=0;entryX=0.5;entryY=1;entryDx=0;entryDy=0;" edge="1" parent="1" source="NY8JZ3C-U5HUo9BYB7Ef-88" target="NY8JZ3C-U5HUo9BYB7Ef-78">
          <mxGeometry width="50" height="50" relative="1" as="geometry">
            <mxPoint x="-281" y="871" as="sourcePoint" />
            <mxPoint x="-280" y="840" as="targetPoint" />
          </mxGeometry>
        </mxCell>
        <mxCell id="NY8JZ3C-U5HUo9BYB7Ef-92" value="绑定业务数据" style="text;html=1;strokeColor=none;fillColor=none;align=center;verticalAlign=middle;whiteSpace=wrap;rounded=0;fontSize=14;" vertex="1" parent="1">
          <mxGeometry x="-320" y="220" width="60" height="30" as="geometry" />
        </mxCell>
        <mxCell id="NY8JZ3C-U5HUo9BYB7Ef-95" value="" style="endArrow=classic;html=1;rounded=0;fontSize=14;entryX=0.5;entryY=0;entryDx=0;entryDy=0;exitX=0.5;exitY=1;exitDx=0;exitDy=0;" edge="1" parent="1" source="NY8JZ3C-U5HUo9BYB7Ef-92" target="NY8JZ3C-U5HUo9BYB7Ef-9">
          <mxGeometry width="50" height="50" relative="1" as="geometry">
            <mxPoint x="-310" y="530" as="sourcePoint" />
            <mxPoint x="-260" y="480" as="targetPoint" />
          </mxGeometry>
        </mxCell>
        <mxCell id="NY8JZ3C-U5HUo9BYB7Ef-101" value="" style="endArrow=classic;html=1;rounded=0;fontSize=14;dashed=1;" edge="1" parent="1">
          <mxGeometry width="50" height="50" relative="1" as="geometry">
            <mxPoint x="-560" y="255" as="sourcePoint" />
            <mxPoint x="-430" y="255" as="targetPoint" />
          </mxGeometry>
        </mxCell>
        <mxCell id="NY8JZ3C-U5HUo9BYB7Ef-102" value="经模版服务下发至移动端" style="text;html=1;align=center;verticalAlign=middle;resizable=0;points=[];autosize=1;strokeColor=none;fillColor=none;fontSize=14;" vertex="1" parent="1">
          <mxGeometry x="-585" y="220" width="180" height="30" as="geometry" />
        </mxCell>
        <mxCell id="NY8JZ3C-U5HUo9BYB7Ef-106" value="" style="rounded=1;whiteSpace=wrap;html=1;shadow=0;dashed=1;" vertex="1" parent="1">
          <mxGeometry x="628" y="533" width="240" height="170" as="geometry" />
        </mxCell>
        <mxCell id="NY8JZ3C-U5HUo9BYB7Ef-107" value="View" style="ellipse;whiteSpace=wrap;html=1;aspect=fixed;fontSize=14;" vertex="1" parent="1">
          <mxGeometry x="200" y="518" width="40" height="40" as="geometry" />
        </mxCell>
        <mxCell id="NY8JZ3C-U5HUo9BYB7Ef-108" value="Text" style="ellipse;whiteSpace=wrap;html=1;aspect=fixed;fontSize=14;" vertex="1" parent="1">
          <mxGeometry x="120" y="598" width="40" height="40" as="geometry" />
        </mxCell>
        <mxCell id="NY8JZ3C-U5HUo9BYB7Ef-109" value="" style="endArrow=none;html=1;rounded=0;exitX=1;exitY=0;exitDx=0;exitDy=0;" edge="1" parent="1" source="NY8JZ3C-U5HUo9BYB7Ef-108" target="NY8JZ3C-U5HUo9BYB7Ef-107">
          <mxGeometry width="50" height="50" relative="1" as="geometry">
            <mxPoint x="160" y="568" as="sourcePoint" />
            <mxPoint x="210" y="518" as="targetPoint" />
          </mxGeometry>
        </mxCell>
        <mxCell id="NY8JZ3C-U5HUo9BYB7Ef-110" value="Text" style="ellipse;whiteSpace=wrap;html=1;aspect=fixed;fontSize=14;" vertex="1" parent="1">
          <mxGeometry x="200" y="598" width="40" height="40" as="geometry" />
        </mxCell>
        <mxCell id="NY8JZ3C-U5HUo9BYB7Ef-111" value="Text" style="ellipse;whiteSpace=wrap;html=1;aspect=fixed;fontSize=14;dashed=1;" vertex="1" parent="1">
          <mxGeometry x="280" y="598" width="40" height="40" as="geometry" />
        </mxCell>
        <mxCell id="NY8JZ3C-U5HUo9BYB7Ef-112" value="" style="endArrow=none;html=1;rounded=0;entryX=0.5;entryY=1;entryDx=0;entryDy=0;" edge="1" parent="1" source="NY8JZ3C-U5HUo9BYB7Ef-110" target="NY8JZ3C-U5HUo9BYB7Ef-107">
          <mxGeometry width="50" height="50" relative="1" as="geometry">
            <mxPoint x="270" y="568" as="sourcePoint" />
            <mxPoint x="270" y="678" as="targetPoint" />
          </mxGeometry>
        </mxCell>
        <mxCell id="NY8JZ3C-U5HUo9BYB7Ef-113" value="" style="endArrow=none;html=1;rounded=0;exitX=1;exitY=1;exitDx=0;exitDy=0;entryX=0;entryY=0;entryDx=0;entryDy=0;" edge="1" parent="1" source="NY8JZ3C-U5HUo9BYB7Ef-107" target="NY8JZ3C-U5HUo9BYB7Ef-111">
          <mxGeometry width="50" height="50" relative="1" as="geometry">
            <mxPoint x="260" y="588" as="sourcePoint" />
            <mxPoint x="280" y="598" as="targetPoint" />
          </mxGeometry>
        </mxCell>
        <mxCell id="NY8JZ3C-U5HUo9BYB7Ef-114" value="" style="ellipse;whiteSpace=wrap;html=1;aspect=fixed;fillColor=#7EA6E0;" vertex="1" parent="1">
          <mxGeometry x="773" y="553" width="25" height="25" as="geometry" />
        </mxCell>
        <mxCell id="NY8JZ3C-U5HUo9BYB7Ef-115" value="" style="ellipse;whiteSpace=wrap;html=1;aspect=fixed;fillColor=#7EA6E0;" vertex="1" parent="1">
          <mxGeometry x="718" y="600.5" width="25" height="25" as="geometry" />
        </mxCell>
        <mxCell id="NY8JZ3C-U5HUo9BYB7Ef-116" value="" style="endArrow=none;html=1;rounded=0;exitX=1;exitY=0;exitDx=0;exitDy=0;" edge="1" parent="1" source="NY8JZ3C-U5HUo9BYB7Ef-115" target="NY8JZ3C-U5HUo9BYB7Ef-114">
          <mxGeometry width="50" height="50" relative="1" as="geometry">
            <mxPoint x="758" y="588" as="sourcePoint" />
            <mxPoint x="808" y="538" as="targetPoint" />
          </mxGeometry>
        </mxCell>
        <mxCell id="NY8JZ3C-U5HUo9BYB7Ef-117" value="" style="ellipse;whiteSpace=wrap;html=1;aspect=fixed;fillColor=#99FF99;" vertex="1" parent="1">
          <mxGeometry x="773" y="600.5" width="25" height="25" as="geometry" />
        </mxCell>
        <mxCell id="NY8JZ3C-U5HUo9BYB7Ef-118" value="" style="ellipse;whiteSpace=wrap;html=1;aspect=fixed;fillColor=#CC99FF;" vertex="1" parent="1">
          <mxGeometry x="828" y="600.5" width="25" height="25" as="geometry" />
        </mxCell>
        <mxCell id="NY8JZ3C-U5HUo9BYB7Ef-119" value="" style="endArrow=none;html=1;rounded=0;entryX=0.5;entryY=1;entryDx=0;entryDy=0;" edge="1" parent="1" source="NY8JZ3C-U5HUo9BYB7Ef-117" target="NY8JZ3C-U5HUo9BYB7Ef-114">
          <mxGeometry width="50" height="50" relative="1" as="geometry">
            <mxPoint x="868" y="588" as="sourcePoint" />
            <mxPoint x="868" y="698" as="targetPoint" />
          </mxGeometry>
        </mxCell>
        <mxCell id="NY8JZ3C-U5HUo9BYB7Ef-120" value="" style="endArrow=none;html=1;rounded=0;exitX=1;exitY=1;exitDx=0;exitDy=0;entryX=0;entryY=0;entryDx=0;entryDy=0;" edge="1" parent="1" source="NY8JZ3C-U5HUo9BYB7Ef-114" target="NY8JZ3C-U5HUo9BYB7Ef-118">
          <mxGeometry width="50" height="50" relative="1" as="geometry">
            <mxPoint x="858" y="608" as="sourcePoint" />
            <mxPoint x="878" y="618" as="targetPoint" />
          </mxGeometry>
        </mxCell>
        <mxCell id="NY8JZ3C-U5HUo9BYB7Ef-121" value="" style="ellipse;whiteSpace=wrap;html=1;aspect=fixed;fillColor=#7EA6E0;" vertex="1" parent="1">
          <mxGeometry x="658" y="653" width="25" height="25" as="geometry" />
        </mxCell>
        <mxCell id="NY8JZ3C-U5HUo9BYB7Ef-122" value="" style="ellipse;whiteSpace=wrap;html=1;aspect=fixed;fillColor=#FFB366;" vertex="1" parent="1">
          <mxGeometry x="718" y="653" width="25" height="25" as="geometry" />
        </mxCell>
        <mxCell id="NY8JZ3C-U5HUo9BYB7Ef-123" value="" style="ellipse;whiteSpace=wrap;html=1;aspect=fixed;fillColor=#7EA6E0;" vertex="1" parent="1">
          <mxGeometry x="773" y="653" width="25" height="25" as="geometry" />
        </mxCell>
        <mxCell id="NY8JZ3C-U5HUo9BYB7Ef-124" value="" style="ellipse;whiteSpace=wrap;html=1;aspect=fixed;fillColor=#7EA6E0;" vertex="1" parent="1">
          <mxGeometry x="828" y="653" width="25" height="25" as="geometry" />
        </mxCell>
        <mxCell id="NY8JZ3C-U5HUo9BYB7Ef-125" value="" style="endArrow=none;html=1;rounded=0;exitX=1;exitY=0;exitDx=0;exitDy=0;entryX=0;entryY=1;entryDx=0;entryDy=0;" edge="1" parent="1" source="NY8JZ3C-U5HUo9BYB7Ef-121" target="NY8JZ3C-U5HUo9BYB7Ef-115">
          <mxGeometry width="50" height="50" relative="1" as="geometry">
            <mxPoint x="648" y="680" as="sourcePoint" />
            <mxPoint x="700" y="628" as="targetPoint" />
          </mxGeometry>
        </mxCell>
        <mxCell id="NY8JZ3C-U5HUo9BYB7Ef-126" value="" style="endArrow=none;html=1;rounded=0;entryX=0.5;entryY=1;entryDx=0;entryDy=0;exitX=0.5;exitY=0;exitDx=0;exitDy=0;" edge="1" parent="1" source="NY8JZ3C-U5HUo9BYB7Ef-122" target="NY8JZ3C-U5HUo9BYB7Ef-115">
          <mxGeometry width="50" height="50" relative="1" as="geometry">
            <mxPoint x="828" y="628" as="sourcePoint" />
            <mxPoint x="828" y="588" as="targetPoint" />
          </mxGeometry>
        </mxCell>
        <mxCell id="NY8JZ3C-U5HUo9BYB7Ef-127" value="" style="endArrow=none;html=1;rounded=0;exitX=1;exitY=1;exitDx=0;exitDy=0;entryX=0;entryY=0;entryDx=0;entryDy=0;" edge="1" parent="1" source="NY8JZ3C-U5HUo9BYB7Ef-115" target="NY8JZ3C-U5HUo9BYB7Ef-123">
          <mxGeometry width="50" height="50" relative="1" as="geometry">
            <mxPoint x="842" y="582" as="sourcePoint" />
            <mxPoint x="894" y="634" as="targetPoint" />
          </mxGeometry>
        </mxCell>
        <mxCell id="NY8JZ3C-U5HUo9BYB7Ef-128" value="" style="endArrow=none;html=1;rounded=0;entryX=1;entryY=1;entryDx=0;entryDy=0;exitX=0;exitY=0;exitDx=0;exitDy=0;" edge="1" parent="1" source="NY8JZ3C-U5HUo9BYB7Ef-124" target="NY8JZ3C-U5HUo9BYB7Ef-117">
          <mxGeometry width="50" height="50" relative="1" as="geometry">
            <mxPoint x="958" y="718" as="sourcePoint" />
            <mxPoint x="1008" y="668" as="targetPoint" />
          </mxGeometry>
        </mxCell>
        <mxCell id="NY8JZ3C-U5HUo9BYB7Ef-129" value="View" style="ellipse;whiteSpace=wrap;html=1;aspect=fixed;fontSize=14;" vertex="1" parent="1">
          <mxGeometry x="450" y="518" width="40" height="40" as="geometry" />
        </mxCell>
        <mxCell id="NY8JZ3C-U5HUo9BYB7Ef-130" value="Text" style="ellipse;whiteSpace=wrap;html=1;aspect=fixed;fontSize=14;" vertex="1" parent="1">
          <mxGeometry x="370" y="598" width="40" height="40" as="geometry" />
        </mxCell>
        <mxCell id="NY8JZ3C-U5HUo9BYB7Ef-131" value="" style="endArrow=none;html=1;rounded=0;exitX=1;exitY=0;exitDx=0;exitDy=0;" edge="1" parent="1" source="NY8JZ3C-U5HUo9BYB7Ef-130" target="NY8JZ3C-U5HUo9BYB7Ef-129">
          <mxGeometry width="50" height="50" relative="1" as="geometry">
            <mxPoint x="410" y="568" as="sourcePoint" />
            <mxPoint x="460" y="518" as="targetPoint" />
          </mxGeometry>
        </mxCell>
        <mxCell id="NY8JZ3C-U5HUo9BYB7Ef-132" value="Text" style="ellipse;whiteSpace=wrap;html=1;aspect=fixed;fontSize=14;" vertex="1" parent="1">
          <mxGeometry x="450" y="598" width="40" height="40" as="geometry" />
        </mxCell>
        <mxCell id="NY8JZ3C-U5HUo9BYB7Ef-133" value="List" style="ellipse;whiteSpace=wrap;html=1;aspect=fixed;fontSize=14;" vertex="1" parent="1">
          <mxGeometry x="530" y="598" width="40" height="40" as="geometry" />
        </mxCell>
        <mxCell id="NY8JZ3C-U5HUo9BYB7Ef-134" value="" style="endArrow=none;html=1;rounded=0;entryX=0.5;entryY=1;entryDx=0;entryDy=0;" edge="1" parent="1" source="NY8JZ3C-U5HUo9BYB7Ef-132" target="NY8JZ3C-U5HUo9BYB7Ef-129">
          <mxGeometry width="50" height="50" relative="1" as="geometry">
            <mxPoint x="520" y="568" as="sourcePoint" />
            <mxPoint x="520" y="678" as="targetPoint" />
          </mxGeometry>
        </mxCell>
        <mxCell id="NY8JZ3C-U5HUo9BYB7Ef-135" value="" style="endArrow=none;html=1;rounded=0;exitX=1;exitY=1;exitDx=0;exitDy=0;entryX=0;entryY=0;entryDx=0;entryDy=0;" edge="1" parent="1" source="NY8JZ3C-U5HUo9BYB7Ef-129" target="NY8JZ3C-U5HUo9BYB7Ef-133">
          <mxGeometry width="50" height="50" relative="1" as="geometry">
            <mxPoint x="510" y="588" as="sourcePoint" />
            <mxPoint x="530" y="598" as="targetPoint" />
          </mxGeometry>
        </mxCell>
        <mxCell id="NY8JZ3C-U5HUo9BYB7Ef-136" value="" style="endArrow=classic;html=1;rounded=0;fontSize=14;exitX=0.5;exitY=1;exitDx=0;exitDy=0;entryX=0.5;entryY=1;entryDx=0;entryDy=0;fillColor=#f8cecc;strokeColor=#b85450;dashed=1;dashPattern=1 1;" edge="1" parent="1" source="NY8JZ3C-U5HUo9BYB7Ef-110" target="NY8JZ3C-U5HUo9BYB7Ef-132">
          <mxGeometry width="50" height="50" relative="1" as="geometry">
            <mxPoint x="260" y="758" as="sourcePoint" />
            <mxPoint x="310" y="708" as="targetPoint" />
            <Array as="points">
              <mxPoint x="220" y="718" />
              <mxPoint x="330" y="718" />
              <mxPoint x="440" y="718" />
              <mxPoint x="470" y="718" />
            </Array>
          </mxGeometry>
        </mxCell>
        <mxCell id="NY8JZ3C-U5HUo9BYB7Ef-137" value="" style="endArrow=classic;html=1;rounded=0;fontSize=14;exitX=0.5;exitY=1;exitDx=0;exitDy=0;entryX=0.5;entryY=1;entryDx=0;entryDy=0;fillColor=#ffe6cc;strokeColor=#d79b00;dashed=1;dashPattern=1 1;" edge="1" parent="1" source="NY8JZ3C-U5HUo9BYB7Ef-108" target="NY8JZ3C-U5HUo9BYB7Ef-130">
          <mxGeometry width="50" height="50" relative="1" as="geometry">
            <mxPoint x="120" y="648" as="sourcePoint" />
            <mxPoint x="460" y="658" as="targetPoint" />
            <Array as="points">
              <mxPoint x="140" y="708" />
              <mxPoint x="250" y="708" />
              <mxPoint x="360" y="708" />
              <mxPoint x="390" y="708" />
            </Array>
          </mxGeometry>
        </mxCell>
        <mxCell id="NY8JZ3C-U5HUo9BYB7Ef-138" value="创建为Render Node" style="text;html=1;strokeColor=none;fillColor=none;align=center;verticalAlign=middle;whiteSpace=wrap;rounded=0;fontSize=14;" vertex="1" parent="1">
          <mxGeometry x="150" y="658" width="60" height="30" as="geometry" />
        </mxCell>
        <mxCell id="NY8JZ3C-U5HUo9BYB7Ef-139" value="包含vl:for = list" style="text;html=1;strokeColor=none;fillColor=none;align=center;verticalAlign=middle;whiteSpace=wrap;rounded=0;fontSize=14;" vertex="1" parent="1">
          <mxGeometry x="249.5" y="638" width="101" height="30" as="geometry" />
        </mxCell>
        <mxCell id="NY8JZ3C-U5HUo9BYB7Ef-140" value="DSL Tree" style="text;html=1;strokeColor=none;fillColor=none;align=center;verticalAlign=middle;whiteSpace=wrap;rounded=0;fontSize=14;" vertex="1" parent="1">
          <mxGeometry x="180" y="488" width="80" height="30" as="geometry" />
        </mxCell>
        <mxCell id="NY8JZ3C-U5HUo9BYB7Ef-141" value="Node Tree" style="text;html=1;strokeColor=none;fillColor=none;align=center;verticalAlign=middle;whiteSpace=wrap;rounded=0;fontSize=14;" vertex="1" parent="1">
          <mxGeometry x="435" y="488" width="70" height="30" as="geometry" />
        </mxCell>
        <mxCell id="NY8JZ3C-U5HUo9BYB7Ef-142" value="展开for节点" style="text;html=1;strokeColor=none;fillColor=none;align=center;verticalAlign=middle;whiteSpace=wrap;rounded=0;fontSize=14;" vertex="1" parent="1">
          <mxGeometry x="500" y="691" width="101" height="30" as="geometry" />
        </mxCell>
        <mxCell id="NY8JZ3C-U5HUo9BYB7Ef-143" value="Render Tree" style="text;html=1;strokeColor=none;fillColor=none;align=center;verticalAlign=middle;whiteSpace=wrap;rounded=0;fontSize=14;" vertex="1" parent="1">
          <mxGeometry x="705.5" y="488" width="85" height="30" as="geometry" />
        </mxCell>
        <mxCell id="NY8JZ3C-U5HUo9BYB7Ef-144" value="编译期" style="text;html=1;strokeColor=#6c8ebf;fillColor=#dae8fc;align=center;verticalAlign=middle;whiteSpace=wrap;rounded=0;fontSize=14;" vertex="1" parent="1">
          <mxGeometry x="125" y="448" width="190" height="30" as="geometry" />
        </mxCell>
        <mxCell id="NY8JZ3C-U5HUo9BYB7Ef-145" value="运行时" style="text;html=1;strokeColor=#6c8ebf;fillColor=#dae8fc;align=center;verticalAlign=middle;whiteSpace=wrap;rounded=0;fontSize=14;" vertex="1" parent="1">
          <mxGeometry x="380" y="448" width="480" height="30" as="geometry" />
        </mxCell>
        <mxCell id="NY8JZ3C-U5HUo9BYB7Ef-146" value="" style="ellipse;whiteSpace=wrap;html=1;aspect=fixed;fillColor=#7EA6E0;" vertex="1" parent="1">
          <mxGeometry x="538.75" y="662" width="22.5" height="22.5" as="geometry" />
        </mxCell>
        <mxCell id="NY8JZ3C-U5HUo9BYB7Ef-147" value="" style="ellipse;whiteSpace=wrap;html=1;aspect=fixed;fillColor=#7EA6E0;" vertex="1" parent="1">
          <mxGeometry x="490" y="662" width="22" height="22" as="geometry" />
        </mxCell>
        <mxCell id="NY8JZ3C-U5HUo9BYB7Ef-148" value="" style="ellipse;whiteSpace=wrap;html=1;aspect=fixed;fillColor=#7EA6E0;" vertex="1" parent="1">
          <mxGeometry x="584" y="662.25" width="22" height="22" as="geometry" />
        </mxCell>
        <mxCell id="NY8JZ3C-U5HUo9BYB7Ef-149" value="" style="endArrow=none;html=1;rounded=0;fontSize=14;entryX=0;entryY=1;entryDx=0;entryDy=0;exitX=1;exitY=0;exitDx=0;exitDy=0;" edge="1" parent="1" source="NY8JZ3C-U5HUo9BYB7Ef-147" target="NY8JZ3C-U5HUo9BYB7Ef-133">
          <mxGeometry width="50" height="50" relative="1" as="geometry">
            <mxPoint x="510" y="668" as="sourcePoint" />
            <mxPoint x="550" y="668" as="targetPoint" />
          </mxGeometry>
        </mxCell>
        <mxCell id="NY8JZ3C-U5HUo9BYB7Ef-150" value="" style="endArrow=none;html=1;rounded=0;fontSize=14;exitX=0.5;exitY=0;exitDx=0;exitDy=0;entryX=0.5;entryY=1;entryDx=0;entryDy=0;" edge="1" parent="1" source="NY8JZ3C-U5HUo9BYB7Ef-146" target="NY8JZ3C-U5HUo9BYB7Ef-133">
          <mxGeometry width="50" height="50" relative="1" as="geometry">
            <mxPoint x="530" y="708" as="sourcePoint" />
            <mxPoint x="550" y="678" as="targetPoint" />
          </mxGeometry>
        </mxCell>
        <mxCell id="NY8JZ3C-U5HUo9BYB7Ef-151" value="" style="endArrow=none;html=1;rounded=0;fontSize=14;exitX=0;exitY=0;exitDx=0;exitDy=0;entryX=1;entryY=1;entryDx=0;entryDy=0;" edge="1" parent="1" source="NY8JZ3C-U5HUo9BYB7Ef-148" target="NY8JZ3C-U5HUo9BYB7Ef-133">
          <mxGeometry width="50" height="50" relative="1" as="geometry">
            <mxPoint x="559" y="709" as="sourcePoint" />
            <mxPoint x="560" y="678" as="targetPoint" />
          </mxGeometry>
        </mxCell>
        <mxCell id="NY8JZ3C-U5HUo9BYB7Ef-152" value="绑定业务数据" style="text;html=1;strokeColor=none;fillColor=none;align=center;verticalAlign=middle;whiteSpace=wrap;rounded=0;fontSize=14;" vertex="1" parent="1">
          <mxGeometry x="520" y="518" width="60" height="30" as="geometry" />
        </mxCell>
        <mxCell id="NY8JZ3C-U5HUo9BYB7Ef-153" value="" style="endArrow=classic;html=1;rounded=0;fontSize=14;entryX=0.5;entryY=0;entryDx=0;entryDy=0;exitX=0.5;exitY=1;exitDx=0;exitDy=0;" edge="1" parent="1" source="NY8JZ3C-U5HUo9BYB7Ef-152" target="NY8JZ3C-U5HUo9BYB7Ef-133">
          <mxGeometry width="50" height="50" relative="1" as="geometry">
            <mxPoint x="530" y="828" as="sourcePoint" />
            <mxPoint x="580" y="778" as="targetPoint" />
          </mxGeometry>
        </mxCell>
        <mxCell id="NY8JZ3C-U5HUo9BYB7Ef-154" value="" style="endArrow=classic;html=1;rounded=0;fontSize=14;dashed=1;" edge="1" parent="1">
          <mxGeometry width="50" height="50" relative="1" as="geometry">
            <mxPoint x="280" y="553" as="sourcePoint" />
            <mxPoint x="410" y="553" as="targetPoint" />
          </mxGeometry>
        </mxCell>
        <mxCell id="NY8JZ3C-U5HUo9BYB7Ef-155" value="经模版服务下发至移动端" style="text;html=1;align=center;verticalAlign=middle;resizable=0;points=[];autosize=1;strokeColor=none;fillColor=none;fontSize=14;" vertex="1" parent="1">
          <mxGeometry x="255" y="518" width="180" height="30" as="geometry" />
        </mxCell>
      </root>
    </mxGraphModel>
  </diagram>
  <diagram id="zvuPknx_NZuE98oMCojz" name="第 2 页">
    <mxGraphModel dx="1242" dy="726" grid="1" gridSize="10" guides="1" tooltips="1" connect="1" arrows="1" fold="1" page="1" pageScale="1" pageWidth="827" pageHeight="1169" math="0" shadow="0">
      <root>
        <mxCell id="0" />
        <mxCell id="1" parent="0" />
      </root>
    </mxGraphModel>
  </diagram>
</mxfile>
